<?xml version="1.0" encoding="UTF-8" standalone="no"?>
<!-- Created with Inkscape (http://www.inkscape.org/) -->

<svg
 xmlns:dc="http://purl.org/dc/elements/1.1/"
 xmlns:cc="http://creativecommons.org/ns#"
 xmlns:rdf="http://www.w3.org/1999/02/22-rdf-syntax-ns#"
 xmlns:svg="http://www.w3.org/2000/svg"
 xmlns="http://www.w3.org/2000/svg"
 xmlns:sodipodi="http://sodipodi.sourceforge.net/DTD/sodipodi-0.dtd"
 xmlns:inkscape="http://www.inkscape.org/namespaces/inkscape"
 width="708.6"
 height="536.9"
 id="svg3335"
 version="1.1"
 inkscape:version="0.48.2 r9819"
 sodipodi:docname="cat.02.svg">
<defs
 id="defs3" />
<sodipodi:namedview
 inkscape:document-units="mm"
 id="base"
 pagecolor="#ffffff"
 bordercolor="#666666"
 borderopacity="1.0"
 inkscape:pageopacity="0.0"
 inkscape:pageshadow="2"
 inkscape:zoom="0.7276"
 inkscape:cx="491.5"
 inkscape:cy="317.1"
 inkscape:current-layer="layer1"
 showgrid="false"
 units="mm"
 fit-margin-top="0"
 fit-margin-left="0"
 fit-margin-right="0"
 fit-margin-bottom="0"
 inkscape:window-width="1366"
 inkscape:window-height="693"
 inkscape:window-x="-9"
 inkscape:window-y="-9"
 inkscape:window-maximized="1" />
<metadata
 id="metadata4">
<rdf:RDF>
<cc:Work
 rdf:about="">
<dc:format>image/svg+xml</dc:format>
<dc:type
 rdf:resource="http://purl.org/dc/dcmitype/StillImage" />
<dc:title />
</cc:Work>
</rdf:RDF>
</metadata>
<g
 inkscape:label="Layer 1"
 inkscape:groupmode="layer"
 id="layer1"
 transform="translate(229.7,-474.5)">
<path
 style="fill:#ffcc66;fill-opacity:1;stroke:#000000;stroke-width:0.5689px;stroke-linecap:butt;stroke-linejoin:miter;stroke-opacity:1"
 d="m 416,614.7 c -135.6,-109.1 -525,-91 -590.3,-3.9"
 id="path3794"
 inkscape:connector-curvature="0"
 sodipodi:nodetypes="cc" />
<path
 style="fill:#ffcc66;fill-opacity:1;stroke:#000000;stroke-width:0.9921;stroke-linecap:butt;stroke-linejoin:miter;stroke-opacity:1;stroke-miterlimit:4;stroke-dasharray:none"
 d="m 209.4,601.9 c 47.4,-31.3 196.6,-166 260.4,-102 38.2,37.9 -58.3,163.3 -69.8,186.5 -7.7,15.2 5.3,94.8 -4.9,139.5 C 384.6,875.2 218.7,991.7 134.1,1007 98.04,1017 20.61,985.8 -5.787,972.6 -109.8,920.6 -119.4,873.6 -167.6,777.3 c -27.4,-86.8 14.8,-83.4 -19.9,-158.9 -8,-16.1 -57.9,-96.4 -35.9,-118.5 74.7,-74.7 211.81,34.9 267.01,101.2"
 id="path3347"
 inkscape:connector-curvature="0"
 sodipodi:nodetypes="cccccccccc" />
<path
 style="fill:none;stroke:#000000;stroke-width:0.5689px;stroke-linecap:butt;stroke-linejoin:miter;stroke-opacity:1"
 d="M 52.44,707.1 C 45.84,681.8 27.94,612.7 5.358,625.9"
 id="path3367"
 inkscape:connector-curvature="0"
 sodipodi:nodetypes="cc" />
<path
 style="fill:none;stroke:#000000;stroke-width:0.5689px;stroke-linecap:butt;stroke-linejoin:miter;stroke-opacity:1"
 d="M 40.43,714.3 C 27.26,690.1 19.81,665.4 -3.402,653"
 id="path3369"
 inkscape:connector-curvature="0"
 sodipodi:nodetypes="cc" />
<path
 style="fill:none;stroke:#000000;stroke-width:0.5689px;stroke-linecap:butt;stroke-linejoin:miter;stroke-opacity:1"
 d="m 205.5,717.5 c 2.9,-26.9 16.6,-75 46.2,-81.2"
 id="path3371"
 inkscape:connector-curvature="0" />
<path
 style="fill:none;stroke:#000000;stroke-width:0.5689px;stroke-linecap:butt;stroke-linejoin:miter;stroke-opacity:1"
 d="m 197.4,693.6 c 3.2,-29.2 20.4,-58 43.1,-76.6"
 id="path3373"
 inkscape:connector-curvature="0" />
<path
 style="fill:none;stroke:#000000;stroke-width:1px;stroke-linecap:butt;stroke-linejoin:miter;stroke-opacity:1"
 d="m 425.2,440.9 c 54.4,-34.8 145.4,-61.9 187.8,7"
 id="path3433"
 inkscape:connector-curvature="0"
 transform="translate(-229.7,474.5)"
 sodipodi:nodetypes="cc" />
<path
 style="fill:none;stroke:#000000;stroke-width:1px;stroke-linecap:butt;stroke-linejoin:miter;stroke-opacity:1"
 d="m 185.7,930.1 c 46.7,-25.8 123.7,-36 157.7,1.4"
 id="path3435"
 inkscape:connector-curvature="0"
 sodipodi:nodetypes="cc" />
<path
 style="fill:none;stroke:#000000;stroke-width:1px;stroke-linecap:butt;stroke-linejoin:miter;stroke-opacity:1"
 d="M 256.4,443.7 C 212.7,430.4 128.3,399.8 96.68,447.2"
 id="path3439"
 inkscape:connector-curvature="0"
 transform="translate(-229.7,474.5)" />
<path
 style="fill:none;stroke:#000000;stroke-width:1px;stroke-linecap:butt;stroke-linejoin:miter;stroke-opacity:1"
 d="M 269,459.1 C 229.6,445.7 148,433.7 115.6,482.3"
 id="path3443"
 inkscape:connector-curvature="0"
 transform="translate(-229.7,474.5)" />
<path
 style="fill:none;stroke:#000000;stroke-width:1px;stroke-linecap:butt;stroke-linejoin:miter;stroke-opacity:1"
 d="m 282.3,472.4 c -38.4,-7.1 -128.2,-27.2 -128.2,33"
 id="path3445"
 inkscape:connector-curvature="0"
 transform="translate(-229.7,474.5)" />
<path
 style="fill:none;stroke:#000000;stroke-width:1px;stroke-linecap:butt;stroke-linejoin:miter;stroke-opacity:1"
 d="m 404.3,473.8 c 52.1,-25.4 103.8,-25.4 150.6,9.8"
 id="path3447"
 inkscape:connector-curvature="0"
 transform="translate(-229.7,474.5)"
 sodipodi:nodetypes="cc" />
<path
 style="fill:#990000;stroke:#000000;stroke-width:1px;stroke-linecap:butt;stroke-linejoin:miter;stroke-opacity:1"
 d="m 330.9,179.2 c 12.1,-29.3 -36.7,-65.2 -9.3,-78.9 6.3,-3.15 64.5,-5.92 67.9,4.4 4.3,12.9 -15.6,50.8 -21.7,63 -13,26 14.8,21.8 2.9,45.6 -8.1,16.1 -14.1,28.2 -14.1,49.6 0,12.8 -12.9,25.6 -26.9,-2.5 -3.8,-7.4 1.2,-72.5 1.2,-81.2 z"
 id="path3449"
 inkscape:connector-curvature="0"
 transform="translate(-229.7,474.5)"
 sodipodi:nodetypes="cccscscc" />
<path
 style="fill:#ff3300;fill-opacity:1;fill-rule:evenodd;stroke:#000000;stroke-width:0.7087;stroke-linecap:round;stroke-linejoin:round;stroke-miterlimit:4;stroke-opacity:1;stroke-dasharray:none;stroke-dashoffset:0"
 d="m 331.7,466.7 c -1.6,-1.4 -6.7,-8.7 -8.4,-13.8 -5.8,-9.1 -6.2,-7.8 -21.7,-16.3 -6.1,-2.3 -12.4,-6.4 -14,-7.8 l -3,-3.1 3.9,-1.7 c 9.6,-4 19.8,-5.7 39.2,-6.2 24,-0.7 42.7,1.7 59.4,7.4 l 5.9,1.9 -7.6,7.9 c -2.6,2.5 -8.8,7.6 -16.9,11.7 -8.6,5.6 -18.5,12.8 -22.5,16.2 -3.7,3.9 -7.6,5.6 -8.6,5.6 -1,0 -4.1,-0.5 -5.7,-1.8 z"
 id="path3451"
 inkscape:connector-curvature="0"
 transform="translate(-229.7,474.5)"
 sodipodi:nodetypes="ccccccccccccsc" />
<path
 style="fill:#ffff99;fill-opacity:1;fill-rule:evenodd;stroke:#000000;stroke-opacity:1"
 d="m 234.8,378.9 c -35.5,-8.1 -70.5,-33.9 -87.2,-64 -6.2,-11.3 -8.6,-20.5 -8.7,-33.4 -0.1,-18 0.2,-18.6 12.2,-22.9 20.4,-7.3 29.2,-8.6 57.8,-8.5 23.3,0 28.1,0.4 38.4,3.2 28.6,7.8 39.4,18.4 46.5,46.2 1.5,5.9 3.2,17.7 3.6,26.2 0.7,12.9 0.3,17.3 -2.1,27 -3.3,13.2 -8.8,20.5 -15.5,26 -7.4,4 -11.6,3.7 -19.5,3.6 -9.8,-0.5 -18.1,-1.7 -25.5,-3.4 z"
 id="path4247"
 inkscape:connector-curvature="0"
 transform="translate(-229.7,474.5)"
 sodipodi:nodetypes="cccccccccccc" />
<path
 style="fill:#990000;fill-opacity:1;fill-rule:evenodd;stroke:#000000;stroke-opacity:1"
 d="m 265,340.1 c -18.7,-1.4 -37.4,-3.9 -43.5,-5.8 -9.1,-2.9 -14.3,-6.8 -25.5,-19.6 -5.6,-6.4 -13.6,-15.2 -17.8,-19.5 -12.1,-12.7 -15.3,-19 -11.3,-22.4 2.2,-1.7 19.3,-3.7 31.1,-3 l 14.8,0.5 c 25.2,2.3 32,2.5 49.5,15.6 10.5,10 11.2,20.6 12.7,29.6 1.5,9 1.9,24.4 0.6,25 -0.4,0.2 -5.2,0 -10.6,-0.4 z"
 id="path4225"
 inkscape:connector-curvature="0"
 transform="translate(-229.7,474.5)"
 sodipodi:nodetypes="ccscccccsccc" />
<path
 style="fill:#ffff00;fill-opacity:1;fill-rule:evenodd;stroke:#000000;stroke-opacity:1"
 d="m 218.4,323 c -7.8,-3.3 -16.4,-12.1 -18.8,-19.4 -3.5,-10.4 -1.8,-20.4 5.1,-29.4 l 2.7,-3.6 10,0.7 c 19.5,1.2 34.8,6.6 44.3,15.5 4.7,4.4 5,5 4.5,8.3 -1,5.7 -5.2,13.9 -9.7,18.8 -9.4,10.2 -26,14.1 -38.1,9.1 z"
 id="path4221"
 inkscape:connector-curvature="0"
 transform="translate(-229.7,474.5)"
 sodipodi:nodetypes="ccccccccc" />
<path
 style="fill:#ffff99;fill-opacity:1;fill-rule:evenodd;stroke:#000000;stroke-opacity:1"
 d="m 411.4,380.8 c -6,-1.8 -9.9,-3.5 -13.6,-7 -1.8,-1.7 -5,-6.6 -7.1,-10.9 -3.5,-7 -3.8,-9.3 -3.8,-21.8 0.1,-11.8 0.7,-15.6 3.9,-23.6 10.2,-26.1 30.8,-48.3 52.8,-57 25.9,-10.2 72.6,-8.7 107.2,3.3 17.2,6 17.6,6.3 16.8,12 -3.8,23.7 -15.8,43.9 -37.6,63 -35.2,31 -86.2,49 -118.6,42 z"
 id="path4249"
 inkscape:connector-curvature="0"
 transform="translate(-229.7,474.5)"
 sodipodi:nodetypes="cccccccccc" />
<path
 style="fill:#990000;fill-opacity:1;fill-rule:evenodd;stroke:#000000;stroke-opacity:1"
 d="m 442.8,336.8 c -0.8,-0.2 -4.8,-0.9 -8.9,-1.5 -4.1,-0.7 -10.9,-2.3 -15.2,-3.7 l -7.8,-2.4 0.7,-3.6 c 1.8,-9.8 10.6,-27.4 16.1,-32.3 9.4,-14.4 50.3,-20.4 65.1,-19.8 8.7,0 12.8,0.7 21.8,2 l 7.5,1.6 -0.6,5.1 c -3.3,27.3 -18.8,45.4 -44.7,52.2 -7.1,1.9 -29.6,3.5 -34,2.4 z"
 id="path4227"
 inkscape:connector-curvature="0"
 transform="translate(-229.7,474.5)"
 sodipodi:nodetypes="sccccccccccs" />
<path
 style="fill:#ffff00;fill-opacity:1;fill-rule:evenodd;stroke:#000000;stroke-opacity:1"
 d="m 455.6,330 c -11.7,-4.2 -19.5,-13.9 -22.6,-28.2 -0.6,-2.9 -1.1,-6.9 -1.1,-8.9 0,-3.4 0.4,-4 5.3,-6.9 9.8,-5.9 27.1,-10.3 45.4,-11.7 l 8.6,-0.6 2.1,5.8 c 4.3,11.4 3.6,22 -2.1,33.6 -7.1,14.5 -22.3,21.6 -35.6,16.9 z"
 id="path4223"
 inkscape:connector-curvature="0"
 transform="translate(-229.7,474.5)"
 sodipodi:nodetypes="ccscccccc" />
<path
 style="fill:#ffccff;fill-opacity:1;fill-rule:evenodd;stroke:#000000;stroke-opacity:1"
 d="M 125,180.5 C 68.76,111.7 45.67,62.67 63.22,49.51 c 0.91,-0.69 3.77,-1.77 6.33,-2.41 4.02,-0.99 5.48,-1.03 10.57,-0.29 21.28,3.08 50.88,19.4 81.08,44.86 18.1,15.23 53.6,53.33 50.7,54.33 -25.4,8.9 -40.6,16.5 -68.2,34.1 -6.6,4.2 -12.2,7.6 -12.4,7.6 -0.3,0 -3.1,-3.2 -6.3,-7.2 l 0,0 z"
 id="path4235"
 inkscape:connector-curvature="0"
 transform="translate(-229.7,474.5)" />
<path
 style="fill:#ffccff;fill-opacity:1;fill-rule:evenodd;stroke:#000000;stroke-opacity:1"
 d="m 586.7,183.2 c -15.4,-10.4 -34.4,-19.9 -50.5,-25.5 l -8.1,-2.7 5.1,-8 c 25,-39.5 63.5,-74.29 95,-85.71 6.2,-2.27 15.2,-3.11 19.2,-1.81 4.2,1.4 6.6,3.92 7.8,8.3 4.3,14.69 -8,44.22 -35.7,86.22 -8.6,13 -24.1,34.4 -24.8,34.4 -0.3,0 -3.9,-2.4 -8,-5.2 l 0,0 z"
 id="path4237"
 inkscape:connector-curvature="0"
 transform="translate(-229.7,474.5)" />
<path
 style="fill:#ffff99;fill-opacity:1;fill-rule:evenodd;stroke:#000000;stroke-opacity:1"
 d="m 315.7,532.3 c -24.4,-6.5 -48.3,-14 -78.1,-27.5 -17.6,-8 -57.2,-30.7 -56.3,-31.5 0.2,-0.3 27,11.9 38.1,15.6 26.4,8.8 37.8,11.2 57.6,12.2 23.9,1.2 36.3,-2.4 47.4,-13.5 3,-3 7.1,-10.5 8.6,-14.1 2.9,-6.5 4.4,-5.2 5.5,0.4 1.9,9.7 11.4,21.3 25.8,25.6 9.1,2.7 33.3,2.7 49.3,-0.2 15.3,-2.6 40.8,-9.4 53.3,-14 5.1,-2 22.7,-9.7 23.1,-9.4 1.4,1.5 -59.3,33 -80,41.7 -13.1,5.5 -22.5,8.7 -39.7,13.4 -17.9,4.9 -29.7,6.9 -47.6,2.8 z"
 id="path4251"
 inkscape:connector-curvature="0"
 transform="translate(-229.7,474.5)"
 sodipodi:nodetypes="cccscscscccccccc" />
<path
 style="fill:#0083d7;stroke:#000000;stroke-width:0.56889999999999996px;stroke-linecap:butt;stroke-linejoin:miter;stroke-opacity:1"
 d="m 238.6,793.2 c -3.8,-5.7 -18.9,-27.3 -4.4,-35.9 12.1,12 12,21.3 4.3,35.8"
 id="path3391"
 inkscape:connector-curvature="0"
 sodipodi:nodetypes="ccc" />
<path
 style="fill:#0083d7;stroke:#000000;stroke-width:0.56889999999999996px;stroke-linecap:butt;stroke-linejoin:miter;stroke-opacity:1"
 d="m -7.862,789.1 c 9.039,-9.2 18.902,-15 10.096,-33.3 -14.284,8.4 -14.954,23 -10.342,33.1"
 id="path3393"
 inkscape:connector-curvature="0"
 sodipodi:nodetypes="ccc" />
<path
 style="fill:none;stroke:#000000;stroke-width:0.9921;stroke-linecap:butt;stroke-linejoin:miter;stroke-miterlimit:4;stroke-opacity:1;stroke-dasharray:none"
 d="m 181,804 c -0.4,8.4 -5.3,84 -19.4,100 -13.6,15.5 -33.2,21.3 -47.8,35.9 C 102,951.6 94.01,929.1 92.26,925.6 86.78,914.5 64.84,910.9 56.41,902.4 47.13,893.7 46.16,831.5 46.03,815"
 id="path3349"
 inkscape:connector-curvature="0"
 sodipodi:nodetypes="cscccc" />
</g>
</svg>
